<?xml version="1.0" encoding="utf-8"?>
<!-- Generator: Adobe Illustrator 22.0.1, SVG Export Plug-In . SVG Version: 6.00 Build 0)  -->
<svg version="1.1" id="Layer_1" xmlns="http://www.w3.org/2000/svg" xmlns:xlink="http://www.w3.org/1999/xlink" x="0px" y="0px"
	 viewBox="0 0 512 512" style="enable-background:new 0 0 512 512;" xml:space="preserve">
<style type="text/css">
	.st0{fill:#FFFFFF;}
</style>
<g>
	<g>
		<g>
			<path class="st0" d="M490.7,64H133.1c-7.2,0-13.9,3.6-17.8,9.6L3.5,244.3c-4.6,7.1-4.6,16.3,0,23.4l111.7,170.7
				c3.9,6,10.7,9.6,17.8,9.6h357.6c11.8,0,21.3-9.6,21.3-21.3V85.3C512,73.6,502.4,64,490.7,64z M469.3,405.3H144.6L46.8,256
				l97.8-149.3h324.7L469.3,405.3L469.3,405.3z"/>
			<path class="st0" d="M198.2,356.4c8.3,8.3,21.8,8.3,30.2,0l70.2-70.2l70.2,70.2c8.3,8.3,21.8,8.3,30.2,0s8.3-21.8,0-30.2
				L328.8,256l70.2-70.2c8.3-8.3,8.3-21.8,0-30.2s-21.8-8.3-30.2,0l-70.2,70.2l-70.2-70.2c-8.3-8.3-21.8-8.3-30.2,0
				s-8.3,21.8,0,30.2l70.2,70.2l-70.2,70.2C189.9,334.6,189.9,348.1,198.2,356.4z"/>
		</g>
	</g>
</g>
</svg>
